<?xml version="1.0" encoding="utf-8"?>
<!-- Generator: Adobe Illustrator 28.2.0, SVG Export Plug-In . SVG Version: 6.00 Build 0)  -->
<svg version="1.1" id="图层_1" xmlns="http://www.w3.org/2000/svg" xmlns:xlink="http://www.w3.org/1999/xlink" x="0px" y="0px"
	 viewBox="0 0 3840 1280" enable-background="new 0 0 3840 1280" xml:space="preserve">
<g>
	<g>
		<rect x="160" y="96" fill="#FFFFFF" width="1088" height="1088"/>
		<path fill="#333333" d="M1216,128v1024H192V128H1216 M1280,64H128v1152h1152V64L1280,64z"/>
	</g>
	<g>
		<path fill="#333333" d="M482.46,526h152l-12.92,76h-152l-53.96,304h-76l53.96-304h-76l12.92-76h76l13.68-76h76L482.46,526z
			 M509.06,374h152l-12.92,76h-152L509.06,374z"/>
		<path fill="#333333" d="M710.46,526h76l-53.2,304h-76L710.46,526z M1023.58,906h-304l13.68-76h76l26.6-152h76l-26.6,152h76
			l53.2-304h76L1023.58,906z"/>
	</g>
</g>
<g>
	<g>
		<path fill="#333333" d="M1702.8,1054.4v-28h26.4c5.06,0,10.06-0.87,15-2.6c4.93-1.74,9.33-4.47,13.2-8.2c3.86-3.74,6.86-8.07,9-13
			c2.13-4.94,3.6-9.8,4.4-14.6l29.6-180.8H1746v-28h59.2l7.2-42.8c0.8-5.6,2.13-11.13,4-16.6c1.86-5.46,4.4-10.73,7.6-15.8
			c3.2-5.06,7.13-9.6,11.8-13.6c4.66-4,9.66-7.2,15-9.6c5.33-2.4,10.86-4.06,16.6-5c5.73-0.93,11.26-1.4,16.6-1.4h26.4l0.4,28h-26.4
			c-5.07,0-10.07,0.87-15,2.6c-4.94,1.74-9.4,4.47-13.4,8.2c-4,3.74-7,8.07-9,13c-2,4.94-3.4,9.8-4.2,14.6l-6.4,38.8h54.4v27.6
			h-59.2l-30.4,185.2c-1.07,5.6-2.47,11.13-4.2,16.6c-1.74,5.46-4.27,10.73-7.6,15.8c-3.34,5.06-7.34,9.6-12,13.6
			c-4.67,4-9.67,7.2-15,9.6c-5.34,2.4-10.87,4.06-16.6,5c-5.74,0.93-11.27,1.4-16.6,1.4H1702.8z"/>
		<path fill="#333333" d="M1999.2,971.6c-8,0-15.8-0.74-23.4-2.2c-7.6-1.46-14.54-4.13-20.8-8c-6.27-3.86-11.6-8.8-16-14.8
			c-4.4-6-7.67-12.6-9.8-19.8c-2.14-7.2-3.14-14.73-3-22.6c0.13-7.86,0.86-15.66,2.2-23.4l8-48c1.06-6.66,2.66-13.26,4.8-19.8
			c2.13-6.53,5.06-12.8,8.8-18.8c3.73-6,8.26-11.46,13.6-16.4c5.33-4.93,11.2-9,17.6-12.2s12.93-5.4,19.6-6.6
			c6.66-1.2,13.33-1.8,20-1.8c6.66,0,13.2,0.54,19.6,1.6c6.4,1.07,12.33,2.94,17.8,5.6c5.46,2.67,10.46,6.14,15,10.4
			c4.53,4.27,8.06,9.2,10.6,14.8c2.53,5.6,4.26,11.6,5.2,18c0.93,6.4,0.86,12.94-0.2,19.6c-0.8,5.34-2.54,10.67-5.2,16
			c-2.67,5.34-6,10.2-10,14.6c-4,4.4-8.6,8.14-13.8,11.2c-5.2,3.07-10.54,5.54-16,7.4c-5.47,1.87-11,3.07-16.6,3.6
			c-5.6,0.54-11.2,0.8-16.8,0.8h-14.8c-5.87-0.26-11.74-0.6-17.6-1c-5.87-0.4-11.87-1.13-18-2.2l-1.2,7.6
			c-0.8,4.8-1.27,9.6-1.4,14.4c-0.14,4.8,0.33,9.47,1.4,14c1.06,4.54,2.8,8.8,5.2,12.8c2.4,4,5.33,7.34,8.8,10
			c3.46,2.67,7.53,4.54,12.2,5.6c4.66,1.07,9.4,1.6,14.2,1.6c5.06,0,10.13-0.6,15.2-1.8c5.06-1.2,9.93-3.2,14.6-6
			c4.66-2.8,8.86-6.2,12.6-10.2c3.73-4,6.8-8.4,9.2-13.2l26,12.8c-4,6.94-8.74,13.47-14.2,19.6c-5.47,6.14-11.67,11.27-18.6,15.4
			c-6.94,4.14-14.27,7.07-22,8.8C2014.26,970.73,2006.66,971.6,1999.2,971.6z M2015.6,854c4.53,0,9.13-0.53,13.8-1.6
			c4.66-1.06,9.06-3,13.2-5.8c4.13-2.8,7.53-6.33,10.2-10.6c2.66-4.26,4.4-8.66,5.2-13.2c0.8-5.33,0.53-10.53-0.8-15.6
			c-1.34-5.06-3.8-9.26-7.4-12.6c-3.6-3.33-7.94-5.73-13-7.2c-5.07-1.46-10.27-2.2-15.6-2.2c-4.27,0-8.74,0.47-13.4,1.4
			c-4.67,0.94-9,2.54-13,4.8c-4,2.27-7.67,5.2-11,8.8c-3.34,3.6-6.14,7.4-8.4,11.4c-2.27,4-4.07,8.2-5.4,12.6
			c-1.34,4.4-2.4,8.74-3.2,13l-2,12.4c4,0.8,8.13,1.4,12.4,1.8c4.26,0.4,8.6,0.67,13,0.8c4.4,0.14,8.66,0.47,12.8,1
			C2007.13,853.74,2011.33,854,2015.6,854z"/>
		<path fill="#333333" d="M2175.2,971.6c-6.94,0-13.54-1.14-19.8-3.4c-6.27-2.26-11.47-5.8-15.6-10.6c-4.14-4.8-7.27-10.33-9.4-16.6
			c-2.14-6.26-3.54-12.73-4.2-19.4c-0.67-6.66-0.74-13.4-0.2-20.2c0.53-6.8,1.33-13.66,2.4-20.6l8-48c1.06-6.13,2.4-12.26,4-18.4
			c1.6-6.13,3.93-12.06,7-17.8c3.06-5.73,6.8-11.13,11.2-16.2c4.4-5.06,9.26-9.4,14.6-13c5.33-3.6,11.13-6.2,17.4-7.8
			c6.26-1.6,12.46-2.4,18.6-2.4c6.4,0,12.6,0.94,18.6,2.8c6,1.87,11.13,4.87,15.4,9c4.26,4.14,7.6,8.94,10,14.4
			c2.4,5.47,4.13,11.27,5.2,17.4l16.4-98.4h-16.4l-0.4-28h52.4L2268,931.2c-0.27,1.6-0.27,3.2,0,4.8c0.26,1.6,0.93,3,2,4.2
			c1.06,1.2,2.33,2.07,3.8,2.6c1.46,0.54,3,0.8,4.6,0.8h6v28h-10.8c-5.34,0-10.47-0.67-15.4-2c-4.94-1.33-9.27-3.6-13-6.8
			c-3.74-3.2-6.34-7.26-7.8-12.2c-1.47-4.93-1.94-10.06-1.4-15.4c-2.94,5.34-6.67,10.4-11.2,15.2c-4.54,4.8-9.47,8.8-14.8,12
			c-5.34,3.2-11,5.54-17,7S2181.06,971.6,2175.2,971.6z M2192,943.6c6.13,0,12.33-1.13,18.6-3.4c6.26-2.26,11.73-5.8,16.4-10.6
			c4.66-4.8,8.2-10.2,10.6-16.2c2.4-6,4.13-12.06,5.2-18.2l8-48c0.8-4.8,1.33-9.6,1.6-14.4c0.26-4.8,0.06-9.46-0.6-14
			c-0.67-4.53-1.74-8.93-3.2-13.2c-1.47-4.26-3.67-8-6.6-11.2c-2.94-3.2-6.6-5.53-11-7c-4.4-1.46-9-2.2-13.8-2.2
			c-6.14,0-12.4,1.4-18.8,4.2c-6.4,2.8-11.8,6.8-16.2,12s-7.8,10.87-10.2,17c-2.4,6.14-4.14,12.4-5.2,18.8l-8,48
			c-0.8,4.54-1.27,9.07-1.4,13.6c-0.14,4.54,0.06,9,0.6,13.4c0.53,4.4,1.6,8.6,3.2,12.6s3.93,7.47,7,10.4
			c3.06,2.94,6.66,5.07,10.8,6.4C2183.13,942.94,2187.46,943.6,2192,943.6z"/>
		<path fill="#333333" d="M2399.2,971.6c-8,0-15.8-0.74-23.4-2.2c-7.6-1.46-14.54-4.13-20.8-8c-6.27-3.86-11.6-8.8-16-14.8
			c-4.4-6-7.67-12.6-9.8-19.8c-2.14-7.2-3.14-14.73-3-22.6c0.13-7.86,0.86-15.66,2.2-23.4l8-48c1.06-6.66,2.66-13.26,4.8-19.8
			c2.13-6.53,5.06-12.8,8.8-18.8c3.73-6,8.26-11.46,13.6-16.4c5.33-4.93,11.2-9,17.6-12.2s12.93-5.4,19.6-6.6
			c6.66-1.2,13.33-1.8,20-1.8c6.66,0,13.2,0.54,19.6,1.6c6.4,1.07,12.33,2.94,17.8,5.6c5.46,2.67,10.46,6.14,15,10.4
			c4.53,4.27,8.06,9.2,10.6,14.8c2.53,5.6,4.26,11.6,5.2,18c0.93,6.4,0.86,12.94-0.2,19.6c-0.8,5.34-2.54,10.67-5.2,16
			c-2.67,5.34-6,10.2-10,14.6c-4,4.4-8.6,8.14-13.8,11.2c-5.2,3.07-10.54,5.54-16,7.4c-5.47,1.87-11,3.07-16.6,3.6
			c-5.6,0.54-11.2,0.8-16.8,0.8h-14.8c-5.87-0.26-11.74-0.6-17.6-1c-5.87-0.4-11.87-1.13-18-2.2l-1.2,7.6
			c-0.8,4.8-1.27,9.6-1.4,14.4c-0.14,4.8,0.33,9.47,1.4,14c1.06,4.54,2.8,8.8,5.2,12.8c2.4,4,5.33,7.34,8.8,10
			c3.46,2.67,7.53,4.54,12.2,5.6c4.66,1.07,9.4,1.6,14.2,1.6c5.06,0,10.13-0.6,15.2-1.8c5.06-1.2,9.93-3.2,14.6-6
			c4.66-2.8,8.86-6.2,12.6-10.2c3.73-4,6.8-8.4,9.2-13.2l26,12.8c-4,6.94-8.74,13.47-14.2,19.6c-5.47,6.14-11.67,11.27-18.6,15.4
			c-6.94,4.14-14.27,7.07-22,8.8C2414.26,970.73,2406.66,971.6,2399.2,971.6z M2415.6,854c4.53,0,9.13-0.53,13.8-1.6
			c4.66-1.06,9.06-3,13.2-5.8c4.13-2.8,7.53-6.33,10.2-10.6c2.66-4.26,4.4-8.66,5.2-13.2c0.8-5.33,0.53-10.53-0.8-15.6
			c-1.34-5.06-3.8-9.26-7.4-12.6c-3.6-3.33-7.94-5.73-13-7.2c-5.07-1.46-10.27-2.2-15.6-2.2c-4.27,0-8.74,0.47-13.4,1.4
			c-4.67,0.94-9,2.54-13,4.8c-4,2.27-7.67,5.2-11,8.8c-3.34,3.6-6.14,7.4-8.4,11.4c-2.27,4-4.07,8.2-5.4,12.6
			c-1.34,4.4-2.4,8.74-3.2,13l-2,12.4c4,0.8,8.13,1.4,12.4,1.8c4.26,0.4,8.6,0.67,13,0.8c4.4,0.14,8.66,0.47,12.8,1
			C2407.13,853.74,2411.33,854,2415.6,854z"/>
		<path fill="#333333" d="M2541.2,968.4l29.6-180h-23.6v-28h59.6L2600,800c2.93-5.6,6.33-11.06,10.2-16.4c3.86-5.33,8.2-10,13-14
			s10.26-7.06,16.4-9.2c6.13-2.13,12.13-3.2,18-3.2c4.8,0,9.4,0.67,13.8,2c4.4,1.34,8.26,3.54,11.6,6.6
			c3.33,3.07,5.93,6.67,7.8,10.8c1.86,4.14,3.06,8.54,3.6,13.2c0.53,4.67,0.6,9.4,0.2,14.2c-0.4,4.8-1,9.6-1.8,14.4h-31.2
			c0.53-3.73,0.86-7.4,1-11c0.13-3.6-0.27-7.13-1.2-10.6c-0.94-3.46-2.74-6.26-5.4-8.4c-2.67-2.13-5.87-3.2-9.6-3.2
			c-5.07,0-10.14,0.87-15.2,2.6c-5.07,1.74-9.6,4.34-13.6,7.8c-4,3.47-7.4,7.4-10.2,11.8s-5.2,9-7.2,13.8s-3.67,9.67-5,14.6
			c-1.34,4.94-2.4,9.8-3.2,14.6l-19.6,118H2541.2z"/>
		<path fill="#333333" d="M2775.2,971.6c-6.94,0-13.54-1.14-19.8-3.4c-6.27-2.26-11.47-5.8-15.6-10.6c-4.14-4.8-7.27-10.33-9.4-16.6
			c-2.14-6.26-3.54-12.73-4.2-19.4c-0.67-6.66-0.74-13.4-0.2-20.2c0.53-6.8,1.33-13.66,2.4-20.6l8-48c1.06-6.13,2.4-12.26,4-18.4
			c1.6-6.13,3.93-12.06,7-17.8c3.06-5.73,6.8-11.13,11.2-16.2c4.4-5.06,9.26-9.4,14.6-13c5.33-3.6,11.13-6.2,17.4-7.8
			c6.26-1.6,12.46-2.4,18.6-2.4c6.4,0,12.6,0.94,18.6,2.8c6,1.87,11.13,4.87,15.4,9c4.26,4.14,7.6,8.94,10,14.4
			c2.4,5.47,4.13,11.27,5.2,17.4l6.8-40.4h31.2L2868,931.2c-0.27,1.6-0.27,3.2,0,4.8c0.26,1.6,0.93,3,2,4.2
			c1.06,1.2,2.33,2.07,3.8,2.6c1.46,0.54,3,0.8,4.6,0.8h6v28h-10.8c-5.34,0-10.47-0.67-15.4-2c-4.94-1.33-9.27-3.6-13-6.8
			c-3.74-3.2-6.34-7.26-7.8-12.2c-1.47-4.93-1.94-10.06-1.4-15.4c-2.94,5.34-6.67,10.4-11.2,15.2c-4.54,4.8-9.47,8.8-14.8,12
			c-5.34,3.2-11,5.54-17,7S2781.06,971.6,2775.2,971.6z M2792,943.6c6.13,0,12.33-1.13,18.6-3.4c6.26-2.26,11.73-5.8,16.4-10.6
			c4.66-4.8,8.2-10.2,10.6-16.2c2.4-6,4.13-12.06,5.2-18.2l8-48c0.8-4.8,1.33-9.6,1.6-14.4c0.26-4.8,0.06-9.46-0.6-14
			c-0.67-4.53-1.74-8.93-3.2-13.2c-1.47-4.26-3.67-8-6.6-11.2c-2.94-3.2-6.6-5.53-11-7c-4.4-1.46-9-2.2-13.8-2.2
			c-6.14,0-12.4,1.4-18.8,4.2c-6.4,2.8-11.8,6.8-16.2,12s-7.8,10.87-10.2,17c-2.4,6.14-4.14,12.4-5.2,18.8l-8,48
			c-0.8,4.54-1.27,9.07-1.4,13.6c-0.14,4.54,0.06,9,0.6,13.4c0.53,4.4,1.6,8.6,3.2,12.6s3.93,7.47,7,10.4
			c3.06,2.94,6.66,5.07,10.8,6.4C2783.13,942.94,2787.46,943.6,2792,943.6z"/>
		<path fill="#333333" d="M3022,971.6c-6.4,0-12.74-0.74-19-2.2c-6.27-1.46-11.74-4-16.4-7.6c-4.67-3.6-8.6-8.06-11.8-13.4
			c-3.2-5.33-5.47-11-6.8-17c-1.34-6-1.87-12.26-1.6-18.8c0.26-6.53,0.93-13,2-19.4l17.2-104.8h-36v-28h40.8l14-86h31.2l-14,86h68
			v28h-72.8l-18,109.2c-0.54,3.47-0.87,6.94-1,10.4c-0.14,3.47-0.14,6.87,0,10.2c0.13,3.34,0.73,6.6,1.8,9.8
			c1.06,3.2,2.66,6,4.8,8.4c2.13,2.4,4.73,4.2,7.8,5.4c3.06,1.2,6.33,1.8,9.8,1.8c4.8,0,9.53-1.2,14.2-3.6
			c4.66-2.4,8.6-5.6,11.8-9.6s5.8-8.33,7.8-13c2-4.66,3.66-9.4,5-14.2l28.4,8c-1.34,5.07-3.07,10.07-5.2,15
			c-2.14,4.94-4.74,9.74-7.8,14.4c-3.07,4.67-6.54,9-10.4,13c-3.87,4-8.2,7.4-13,10.2c-4.8,2.8-9.87,4.8-15.2,6
			C3032.26,971,3027.06,971.6,3022,971.6z"/>
		<path fill="#333333" d="M3228.8,971.6c-6.14,0-12.07-0.67-17.8-2c-5.74-1.33-10.94-3.66-15.6-7c-4.67-3.33-8.54-7.46-11.6-12.4
			c-3.07-4.93-5.34-10.2-6.8-15.8c-1.47-5.6-2.07-11.46-1.8-17.6c0.26-6.13,0.93-12.26,2-18.4l18-110h-52.4v-28h88.8L3208,902.8
			c-0.8,4.54-1.27,9.14-1.4,13.8c-0.14,4.67,0.6,9.07,2.2,13.2c1.6,4.14,4.2,7.47,7.8,10c3.6,2.54,7.8,3.8,12.6,3.8
			c4.26,0,8.53-1.06,12.8-3.2c4.26-2.13,7.8-5,10.6-8.6c2.8-3.6,5.13-7.46,7-11.6c1.86-4.13,3.33-8.33,4.4-12.6l28.8,7.6
			c-2.14,7.2-5,14.27-8.6,21.2c-3.6,6.94-8.2,13.14-13.8,18.6c-5.6,5.47-12.07,9.6-19.4,12.4
			C3243.66,970.2,3236.26,971.6,3228.8,971.6z M3228.8,725.2c-4,0-7.8-0.66-11.4-2c-3.6-1.33-6.47-3.53-8.6-6.6
			c-2.14-3.06-3.54-6.53-4.2-10.4c-0.67-3.86-0.74-7.8-0.2-11.8c0.53-2.66,1.53-5.33,3-8c1.46-2.66,3.33-4.86,5.6-6.6
			c2.26-1.73,4.8-2.93,7.6-3.6c2.8-0.66,5.66-1,8.6-1c4,0,7.8,0.74,11.4,2.2c3.6,1.47,6.46,3.74,8.6,6.8
			c2.13,3.07,3.6,6.54,4.4,10.4c0.8,3.87,0.8,7.8,0,11.8c-0.54,2.67-1.54,5.34-3,8c-1.47,2.67-3.34,4.87-5.6,6.6
			c-2.27,1.74-4.8,2.87-7.6,3.4C3234.6,724.94,3231.73,725.2,3228.8,725.2z"/>
		<path fill="#333333" d="M3393.2,971.6c-7.74,0-15.2-0.8-22.4-2.4c-7.2-1.6-13.67-4.46-19.4-8.6c-5.74-4.13-10.54-9.2-14.4-15.2
			c-3.87-6-6.67-12.6-8.4-19.8c-1.74-7.2-2.54-14.6-2.4-22.2c0.13-7.6,0.86-15.13,2.2-22.6l8-48c1.06-6.66,2.66-13.26,4.8-19.8
			c2.13-6.53,5.06-12.8,8.8-18.8c3.73-6,8.2-11.46,13.4-16.4c5.2-4.93,10.93-9,17.2-12.2c6.26-3.2,12.73-5.4,19.4-6.6
			c6.66-1.2,13.33-1.8,20-1.8c7.73,0,15.2,0.8,22.4,2.4c7.2,1.6,13.73,4.47,19.6,8.6c5.86,4.14,10.73,9.2,14.6,15.2
			c3.86,6,6.66,12.6,8.4,19.8c1.73,7.2,2.46,14.6,2.2,22.2c-0.27,7.6-0.94,15.14-2,22.6l-8,48c-1.07,6.67-2.74,13.27-5,19.8
			c-2.27,6.54-5.2,12.8-8.8,18.8c-3.6,6-8,11.47-13.2,16.4c-5.2,4.94-10.94,9-17.2,12.2c-6.27,3.2-12.8,5.4-19.6,6.6
			C3406.6,971,3399.86,971.6,3393.2,971.6z M3393.6,943.6c4.53,0,8.93-0.53,13.2-1.6c4.26-1.06,8.4-2.8,12.4-5.2
			c4-2.4,7.66-5.33,11-8.8c3.33-3.46,6.06-7.2,8.2-11.2c2.13-4,3.86-8.13,5.2-12.4c1.33-4.26,2.26-8.53,2.8-12.8l8-48
			c0.8-4.53,1.33-9.13,1.6-13.8c0.26-4.66,0-9.2-0.8-13.6c-0.8-4.4-2.07-8.6-3.8-12.6c-1.74-4-4.14-7.46-7.2-10.4
			c-3.07-2.93-6.74-5-11-6.2c-4.27-1.2-8.67-1.8-13.2-1.8c-4.54,0-9,0.54-13.4,1.6c-4.4,1.07-8.6,2.8-12.6,5.2
			c-4,2.4-7.6,5.34-10.8,8.8c-3.2,3.47-5.87,7.2-8,11.2c-2.14,4-3.87,8.14-5.2,12.4c-1.34,4.27-2.4,8.54-3.2,12.8l-8,48
			c-0.8,4.54-1.27,9.14-1.4,13.8c-0.14,4.67,0.13,9.2,0.8,13.6c0.66,4.4,1.86,8.6,3.6,12.6c1.73,4,4.13,7.47,7.2,10.4
			c3.06,2.94,6.8,5,11.2,6.2C3384.6,943,3389.06,943.6,3393.6,943.6z"/>
		<path fill="#333333" d="M3517.2,968.4l29.6-180h-16.4v-28h52.4l-5.6,32.4c3.2-5.33,6.86-10.26,11-14.8c4.13-4.53,8.8-8.4,14-11.6
			s10.73-5.53,16.6-7c5.86-1.46,11.6-2.2,17.2-2.2c6.93,0,13.46,1.2,19.6,3.6c6.13,2.4,11.2,6,15.2,10.8s7,10.34,9,16.6
			c2,6.27,3.4,12.67,4.2,19.2c0.8,6.54,0.93,13.27,0.4,20.2c-0.54,6.94-1.34,13.74-2.4,20.4l-15.6,92.4h16.4l0.4,28h-52.4
			l20.4-124.8c0.8-4.53,1.33-9.06,1.6-13.6c0.26-4.53,0.13-8.93-0.4-13.2c-0.54-4.26-1.54-8.4-3-12.4c-1.47-4-3.6-7.53-6.4-10.6
			c-2.8-3.06-6.27-5.26-10.4-6.6c-4.14-1.33-8.47-2-13-2c-5.87,0-11.87,1.2-18,3.6c-6.14,2.4-11.4,6-15.8,10.8
			c-4.4,4.8-7.8,10.2-10.2,16.2c-2.4,6-4,11.94-4.8,17.8l-22.4,134.8H3517.2z"/>
	</g>
	<g>
		<path fill="#333333" d="M2317.2,550.4l29.6-180h-16.4v-28h52.4l-5.6,32.4c3.2-5.33,6.86-10.26,11-14.8c4.13-4.53,8.8-8.4,14-11.6
			s10.73-5.53,16.6-7c5.86-1.46,11.6-2.2,17.2-2.2c6.93,0,13.46,1.2,19.6,3.6c6.13,2.4,11.2,6,15.2,10.8c4,4.8,7,10.34,9,16.6
			c2,6.27,3.4,12.67,4.2,19.2c0.8,6.54,0.93,13.27,0.4,20.2c-0.54,6.94-1.34,13.74-2.4,20.4l-15.6,92.4h16.4l0.4,28h-52.4
			l20.4-124.8c0.8-4.53,1.33-9.06,1.6-13.6c0.26-4.53,0.13-8.93-0.4-13.2c-0.54-4.26-1.54-8.4-3-12.4c-1.47-4-3.6-7.53-6.4-10.6
			c-2.8-3.06-6.27-5.26-10.4-6.6c-4.14-1.33-8.47-2-13-2c-5.87,0-11.87,1.2-18,3.6c-6.14,2.4-11.4,6-15.8,10.8
			c-4.4,4.8-7.8,10.2-10.2,16.2c-2.4,6-4,11.94-4.8,17.8l-22.4,134.8H2317.2z"/>
		<path fill="#333333" d="M2599.2,553.6c-8,0-15.8-0.74-23.4-2.2c-7.6-1.46-14.54-4.13-20.8-8c-6.27-3.86-11.6-8.8-16-14.8
			s-7.67-12.6-9.8-19.8c-2.14-7.2-3.14-14.73-3-22.6c0.13-7.86,0.86-15.66,2.2-23.4l8-48c1.06-6.66,2.66-13.26,4.8-19.8
			c2.13-6.53,5.06-12.8,8.8-18.8c3.73-6,8.26-11.46,13.6-16.4c5.33-4.93,11.2-9,17.6-12.2c6.4-3.2,12.93-5.4,19.6-6.6
			c6.66-1.2,13.33-1.8,20-1.8c6.66,0,13.2,0.54,19.6,1.6c6.4,1.07,12.33,2.94,17.8,5.6c5.46,2.67,10.46,6.14,15,10.4
			c4.53,4.27,8.06,9.2,10.6,14.8c2.53,5.6,4.26,11.6,5.2,18c0.93,6.4,0.86,12.94-0.2,19.6c-0.8,5.34-2.54,10.67-5.2,16
			c-2.67,5.34-6,10.2-10,14.6s-8.6,8.14-13.8,11.2c-5.2,3.07-10.54,5.54-16,7.4c-5.47,1.87-11,3.07-16.6,3.6
			c-5.6,0.54-11.2,0.8-16.8,0.8h-14.8c-5.87-0.26-11.74-0.6-17.6-1c-5.87-0.4-11.87-1.13-18-2.2l-1.2,7.6
			c-0.8,4.8-1.27,9.6-1.4,14.4c-0.14,4.8,0.33,9.47,1.4,14c1.06,4.54,2.8,8.8,5.2,12.8s5.33,7.34,8.8,10
			c3.46,2.67,7.53,4.54,12.2,5.6c4.66,1.07,9.4,1.6,14.2,1.6c5.06,0,10.13-0.6,15.2-1.8c5.06-1.2,9.93-3.2,14.6-6
			c4.66-2.8,8.86-6.2,12.6-10.2c3.73-4,6.8-8.4,9.2-13.2l26,12.8c-4,6.94-8.74,13.47-14.2,19.6c-5.47,6.14-11.67,11.27-18.6,15.4
			c-6.94,4.14-14.27,7.07-22,8.8C2614.26,552.74,2606.66,553.6,2599.2,553.6z M2615.6,436c4.53,0,9.13-0.53,13.8-1.6
			c4.66-1.06,9.06-3,13.2-5.8c4.13-2.8,7.53-6.33,10.2-10.6c2.66-4.26,4.4-8.66,5.2-13.2c0.8-5.33,0.53-10.53-0.8-15.6
			c-1.34-5.06-3.8-9.26-7.4-12.6c-3.6-3.33-7.94-5.73-13-7.2c-5.07-1.46-10.27-2.2-15.6-2.2c-4.27,0-8.74,0.47-13.4,1.4
			c-4.67,0.94-9,2.54-13,4.8c-4,2.27-7.67,5.2-11,8.8c-3.34,3.6-6.14,7.4-8.4,11.4c-2.27,4-4.07,8.2-5.4,12.6
			c-1.34,4.4-2.4,8.74-3.2,13l-2,12.4c4,0.8,8.13,1.4,12.4,1.8c4.26,0.4,8.6,0.67,13,0.8c4.4,0.14,8.66,0.47,12.8,1
			C2607.13,435.74,2611.33,436,2615.6,436z"/>
		<path fill="#333333" d="M2822,553.6c-6.4,0-12.74-0.74-19-2.2c-6.27-1.46-11.74-4-16.4-7.6c-4.67-3.6-8.6-8.06-11.8-13.4
			c-3.2-5.33-5.47-11-6.8-17c-1.34-6-1.87-12.26-1.6-18.8c0.26-6.53,0.93-13,2-19.4l17.2-104.8h-36v-28h40.8l14-86h31.2l-14,86h68
			v28h-72.8l-18,109.2c-0.54,3.47-0.87,6.94-1,10.4c-0.14,3.47-0.14,6.87,0,10.2c0.13,3.34,0.73,6.6,1.8,9.8
			c1.06,3.2,2.66,6,4.8,8.4c2.13,2.4,4.73,4.2,7.8,5.4c3.06,1.2,6.33,1.8,9.8,1.8c4.8,0,9.53-1.2,14.2-3.6
			c4.66-2.4,8.6-5.6,11.8-9.6s5.8-8.33,7.8-13c2-4.66,3.66-9.4,5-14.2l28.4,8c-1.34,5.07-3.07,10.07-5.2,15
			c-2.14,4.94-4.74,9.74-7.8,14.4c-3.07,4.67-6.54,9-10.4,13c-3.87,4-8.2,7.4-13,10.2c-4.8,2.8-9.87,4.8-15.2,6
			C2832.26,553,2827.06,553.6,2822,553.6z"/>
		<path fill="#333333" d="M2936.4,550.4l0.4-180h-16.4v-28h48l-10.8,180.8l38-102.4h30.4l4.4,102.4l49.2-180.8h31.6l-68.4,208h-30.4
			l-6.8-96.8l-38.8,96.8H2936.4z"/>
		<path fill="#333333" d="M3193.2,553.6c-7.74,0-15.2-0.8-22.4-2.4c-7.2-1.6-13.67-4.46-19.4-8.6c-5.74-4.13-10.54-9.2-14.4-15.2
			c-3.87-6-6.67-12.6-8.4-19.8c-1.74-7.2-2.54-14.6-2.4-22.2c0.13-7.6,0.86-15.13,2.2-22.6l8-48c1.06-6.66,2.66-13.26,4.8-19.8
			c2.13-6.53,5.06-12.8,8.8-18.8c3.73-6,8.2-11.46,13.4-16.4c5.2-4.93,10.93-9,17.2-12.2c6.26-3.2,12.73-5.4,19.4-6.6
			c6.66-1.2,13.33-1.8,20-1.8c7.73,0,15.2,0.8,22.4,2.4c7.2,1.6,13.73,4.47,19.6,8.6c5.86,4.14,10.73,9.2,14.6,15.2
			c3.86,6,6.66,12.6,8.4,19.8c1.73,7.2,2.46,14.6,2.2,22.2c-0.27,7.6-0.94,15.14-2,22.6l-8,48c-1.07,6.67-2.74,13.27-5,19.8
			c-2.27,6.54-5.2,12.8-8.8,18.8c-3.6,6-8,11.47-13.2,16.4c-5.2,4.94-10.94,9-17.2,12.2c-6.27,3.2-12.8,5.4-19.6,6.6
			C3206.6,553,3199.86,553.6,3193.2,553.6z M3193.6,525.6c4.53,0,8.93-0.53,13.2-1.6c4.26-1.06,8.4-2.8,12.4-5.2s7.66-5.33,11-8.8
			c3.33-3.46,6.06-7.2,8.2-11.2c2.13-4,3.86-8.13,5.2-12.4c1.33-4.26,2.26-8.53,2.8-12.8l8-48c0.8-4.53,1.33-9.13,1.6-13.8
			c0.26-4.66,0-9.2-0.8-13.6c-0.8-4.4-2.07-8.6-3.8-12.6c-1.74-4-4.14-7.46-7.2-10.4c-3.07-2.93-6.74-5-11-6.2
			c-4.27-1.2-8.67-1.8-13.2-1.8c-4.54,0-9,0.54-13.4,1.6c-4.4,1.07-8.6,2.8-12.6,5.2s-7.6,5.34-10.8,8.8c-3.2,3.47-5.87,7.2-8,11.2
			c-2.14,4-3.87,8.14-5.2,12.4c-1.34,4.27-2.4,8.54-3.2,12.8l-8,48c-0.8,4.54-1.27,9.14-1.4,13.8c-0.14,4.67,0.13,9.2,0.8,13.6
			c0.66,4.4,1.86,8.6,3.6,12.6c1.73,4,4.13,7.47,7.2,10.4c3.06,2.94,6.8,5,11.2,6.2C3184.6,525,3189.06,525.6,3193.6,525.6z"/>
		<path fill="#333333" d="M3341.2,550.4l29.6-180h-23.6v-28h59.6L3400,382c2.93-5.6,6.33-11.06,10.2-16.4c3.86-5.33,8.2-10,13-14
			s10.26-7.06,16.4-9.2c6.13-2.13,12.13-3.2,18-3.2c4.8,0,9.4,0.67,13.8,2c4.4,1.34,8.26,3.54,11.6,6.6
			c3.33,3.07,5.93,6.67,7.8,10.8c1.86,4.14,3.06,8.54,3.6,13.2c0.53,4.67,0.6,9.4,0.2,14.2c-0.4,4.8-1,9.6-1.8,14.4h-31.2
			c0.53-3.73,0.86-7.4,1-11c0.13-3.6-0.27-7.13-1.2-10.6c-0.94-3.46-2.74-6.26-5.4-8.4c-2.67-2.13-5.87-3.2-9.6-3.2
			c-5.07,0-10.14,0.87-15.2,2.6c-5.07,1.74-9.6,4.34-13.6,7.8c-4,3.47-7.4,7.4-10.2,11.8c-2.8,4.4-5.2,9-7.2,13.8
			c-2,4.8-3.67,9.67-5,14.6c-1.34,4.94-2.4,9.8-3.2,14.6l-19.6,118H3341.2z"/>
		<path fill="#333333" d="M3635.6,553.2c-4,0-7.94-0.67-11.8-2c-3.87-1.33-7.07-3.33-9.6-6c-2.54-2.66-4.47-5.8-5.8-9.4
			c-1.34-3.6-2.4-7.4-3.2-11.4l-10.4-54.8c-2.14,0.27-4.34,0.47-6.6,0.6c-2.27,0.14-4.6,0.2-7,0.2c-2.14,0-4.34-0.06-6.6-0.2
			c-2.27-0.13-4.47-0.33-6.6-0.6l-13.2,80.8h-31.6l44-266h-16.4v-28h52.4l-17.6,108c3.73-3.73,7.73-7.26,12-10.6
			c4.26-3.33,8.86-6.06,13.8-8.2c4.93-2.13,9.93-3.73,15-4.8c5.06-1.06,10-1.6,14.8-1.6c7.2,0,13.8,1.47,19.8,4.4
			c6,2.94,10.8,7.07,14.4,12.4c3.6,5.34,5.93,11.4,7,18.2c1.06,6.8,1.06,13.67,0,20.6c-1.34,7.47-3.54,14.87-6.6,22.2
			c-3.07,7.34-7.2,14-12.4,20c-5.2,6-11.2,11.14-18,15.4c-6.8,4.27-14.07,7.74-21.8,10.4l10.8,56.8c0.26,1.6,0.86,3.07,1.8,4.4
			c0.93,1.34,2.2,2,3.8,2s3.13-0.6,4.6-1.8c1.46-1.2,2.6-2.46,3.4-3.8l31.6-54.8l25.6,13.6l-31.2,54.4c-1.87,3.2-4.34,6-7.4,8.4
			c-3.07,2.4-6.34,4.47-9.8,6.2c-3.47,1.74-7,3-10.6,3.8C3642.6,552.8,3639.06,553.2,3635.6,553.2z M3583.6,444
			c4.53,0,9.2-0.4,14-1.2c4.8-0.8,9.6-2,14.4-3.6c4.8-1.6,9.4-3.66,13.8-6.2c4.4-2.53,8.46-5.66,12.2-9.4
			c3.73-3.73,6.6-7.93,8.6-12.6c2-4.66,3.4-9.4,4.2-14.2c0.53-3.46,0.73-6.86,0.6-10.2c-0.14-3.33-0.94-6.46-2.4-9.4
			c-1.47-2.93-3.54-5.33-6.2-7.2c-2.67-1.86-5.74-2.8-9.2-2.8c-5.34,0-10.87,1.27-16.6,3.8c-5.74,2.54-10.74,5.87-15,10
			c-4.27,4.14-8,8.74-11.2,13.8c-3.2,5.07-6,10.27-8.4,15.6c-2.4,5.34-4.34,10.74-5.8,16.2c-1.47,5.47-2.87,11-4.2,16.6
			c1.86,0.27,3.73,0.47,5.6,0.6C3579.86,443.94,3581.73,444,3583.6,444z"/>
	</g>
</g>
</svg>
