<?xml version="1.0" encoding="utf-8"?>
<!-- Generator: Adobe Illustrator 28.2.0, SVG Export Plug-In . SVG Version: 6.00 Build 0)  -->
<svg version="1.1" id="图层_1" xmlns="http://www.w3.org/2000/svg" xmlns:xlink="http://www.w3.org/1999/xlink" x="0px" y="0px"
	 viewBox="0 0 1280 1280" enable-background="new 0 0 1280 1280" xml:space="preserve">
<g>
	<rect x="96" y="96" fill="#FFFFFF" width="1088" height="1088"/>
	<path fill="#333333" d="M1152,128v1024H128V128H1152 M1216,64H64v1152h1152V64L1216,64z"/>
</g>
<g>
	<path fill="#333333" d="M418.46,526h152l-12.92,76h-152l-53.96,304h-76l53.96-304h-76l12.92-76h76l13.68-76h76L418.46,526z
		 M445.06,374h152l-12.92,76h-152L445.06,374z"/>
	<path fill="#333333" d="M646.46,526h76l-53.2,304h-76L646.46,526z M959.58,906h-304l13.68-76h76l26.6-152h76l-26.6,152h76l53.2-304
		h76L959.58,906z"/>
</g>
</svg>
